# AST/ASF file generated using VICON BodyLanguage
# -----------------------------------------------
:version 1.10
:name VICON
:units
  mass 1.0
  length 0.45
  angle deg
:documentation
   .ast/.asf automatically generated from VICON data using
   VICON BodyBuilder and BodyLanguage model FoxedUp or BRILLIANT.MOD
:root
   order TX TY TZ RX RY RZ
   axis XYZ
   position 0 0 0  
   orientation 0 0 0 
:bonedata
  begin
     id 1 
     name lhipjoint
     direction 0.624716 -0.669793 0.401383 
     length 2.38238 
     axis 0 0 0  XYZ
  end
  begin
     id 2 
     name lfemur
     direction 0.34202 -0.939693 0  
     length 6.4574  
     axis 0 0 20  XYZ
    dof rx ry rz
    limits (-160.0 20.0)
           (-70.0 70.0)
           (-60.0 70.0)
  end
  begin
     id 3 
     name ltibia
     direction 0.34202 -0.939693 0   
     length 7.68739   
     axis 0 0 20   XYZ
    dof rx
    limits (-10.0 170.0)
  end
  begin
     id 4 
     name lfoot
     direction 0.0681309 -0.187188 0.979959   
     length 2.46615   
     axis -90 7.62852e-016 20   XYZ
    dof rx rz
    limits (-45.0 90.0)
           (-70.0 20.0)
  end
  begin
     id 5 
     name ltoes
     direction 1.53566e-011 -4.21819e-011 1   
     length 1.2376   
     axis -90 7.62852e-016 20   XYZ
    dof rx
    limits (-90.0 20.0)
  end
  begin
     id 6 
     name rhipjoint
     direction -0.644473 -0.655875 0.393043   
     length 2.43293  
     axis 0 0 0  XYZ 
  end
  begin
     id 7 
     name rfemur
     direction -0.34202 -0.939693 0   
     length 6.7025   
     axis 0 0 -20   XYZ
    dof rx ry rz
    limits (-160.0 20.0)
           (-70.0 70.0)
           (-70.0 60.0)
  end
  begin
     id 8 
     name rtibia
     direction -0.34202 -0.939693 0   
     length 7.80547   
     axis 0 0 -20   XYZ
    dof rx
    limits (-10.0 170.0)
 end
 begin
     id 9 
     name rfoot
     direction -0.0756734 -0.207911 0.975216   
     length 2.40315  
     axis -90 -7.62852e-016 -20   XYZ
    dof rx rz
    limits (-45.0 90.0)
           (-20.0 70.0)
  end
  begin
     id 10 
     name rtoes
     direction -1.5353e-011 -4.21879e-011 1   
     length 1.20477   
     axis -90 -7.62852e-016 -20   XYZ
    dof rx
    limits (-90.0 20.0)
  end
  begin
     id 11 
     name lowerback
     direction 0.0160353 0.987463 -0.157037   
     length 2.18572   
     axis 0 0 0   XYZ
    dof rx ry rz
    limits (-20.0 45.0)
           (-30.0 30.0)
           (-30.0 30.0)
  end
  begin
     id 12 
     name upperback
     direction -0.00499661 0.999756 0.0215076   
     length 2.18016   
     axis 0 0 0   XYZ
    dof rx ry rz
    limits (-20.0 45.0)
           (-30.0 30.0)
           (-30.0 30.0)
  end
  begin
     id 13 
     name thorax
     direction -0.00921346 0.995333 0.0960619   
     length 2.24923   
     axis 0 0 0   XYZ
    dof rx ry rz
    limits (-20.0 45.0)
           (-30.0 30.0)
           (-30.0 30.0)
  end
  begin
     id 14 
     name lowerneck
     direction 0.0274184 0.991181 0.12965   
     length 1.70911   
     axis 0 0 0   XYZ
    dof rx ry rz
    limits (-20.0 45.0)
           (-30.0 30.0)
           (-30.0 30.0)
  end
  begin
     id 15 
     name upperneck
     direction 0.0015627 0.999959 -0.00893559   
     length 1.69312   
     axis 0 0 0   XYZ
    dof rx ry rz
    limits (-20.0 45.0)
           (-30.0 30.0)
           (-30.0 30.0)
  end
  begin
     id 16
     name head
     direction -0.00230242 0.999856 -0.0168327  
     length 1.80241  
     axis 0 0 0   XYZ
    dof rx ry rz
    limits (-20.0 45.0)
           (-30.0 30.0)
           (-30.0 30.0)
  end
  begin
     id 17 
     name lclavicle
     direction 0.955523 0.290741 -0.0494489  
     length 3.84275  
     axis 0 0 0   XYZ
    dof ry rz
    limits (-20.0 10.0)
           (0.0 20.0)
  end
  begin
     id 18 
     name lhumerus
     direction 1 -4.48967e-011 -3.18382e-028   
     length 5.17714   
     axis 180 -30 -90   XYZ
    dof rx ry rz
    limits (-60.0 90.0)
           (-90.0 90.0)
           (-90.0 90.0)
  end
  begin
     id 19
     name lradius
     direction 1 -4.48968e-011 -2.22911e-027   
     length 3.43679   
     axis 180 -30 -90   XYZ
    dof rx
    limits (-10.0 170.0)
  end
  begin
     id 20
     name lwrist
     direction 1 -4.48951e-011 -6.32245e-027   
     length 1.7184   
     axis 3.57107e-015 90 90   XYZ
    dof ry
    limits (-180.0 0.0)
 end
  begin
     id 21 
     name lhand
     direction 1 -4.48924e-011 -1.26431e-026   
     length 0.573117   
     axis 8.06912e-015 90 90   XYZ
    dof rx rz
    limits (-90.0 90.0)
           (-45.0 45.0)
  end
  begin
     id 22 
     name lfingers
     direction 1 -4.49001e-011 -2.52965e-026   
     length 0.462062   
     axis 1.61381e-014 90 90   XYZ
    dof rx
    limits (0.0 90.0)
  end
  begin
     id 23
     name lthumb
     direction 0.707107 -6.35008e-011 0.707107   
     length 0.663431   
     axis -90 45 -1.62303e-014   XYZ
    dof rx rz
    limits (-45.0 45.0)
           (-45.0 45.0)
  end
  begin
     id 24 
     name rclavicle
     direction -0.963917 0.256881 -0.0698287   
     length 3.73057  
     axis 0 0 0   XYZ 
    dof ry rz
    limits (-10.0 20.0)
           (-20.0 0.0)
  end
  begin
     id 25 
     name rhumerus
     direction -1 -4.48962e-011 -2.73982e-027  
     length 5.23908   
     axis 180 30 90   XYZ
    dof rx ry rz
    limits (-90.0 60.0)
           (-90.0 90.0)
           (-90.0 90.0)
  end
  begin
     id 26 
     name rradius
     direction -1 -4.48968e-011 -4.33218e-027   
     length 3.46485   
     axis 180 30 90   XYZ
    dof rx
    limits (-10.0 170.0)
  end
  begin
     id 27 
     name rwrist
     direction -1 -4.48989e-011 -6.32372e-027   
     length 1.73243   
     axis 3.57107e-015 -90 -90   XYZ
    dof ry
    limits (-180.0 0.0)
  end
  begin
     id 28
     name rhand
     direction -1 -4.48948e-011 -1.26448e-026   
     length 0.608752   
     axis 8.06912e-015 -90 -90   XYZ
    dof rx rz
    limits (-90.0 90.0)
           (-45.0 45.0)
  end
  begin
     id 29
     name rfingers
     direction -1 -4.48962e-011 -2.52913e-026   
     length 0.490792   
     axis 1.61381e-014 -90 -90   XYZ
    dof rx
    limits (0.0 90.0)
  end
  begin
     id 30
     name rthumb
     direction -0.707107 -6.34878e-011 0.707107   
     length 0.704682   
     axis -90 -45 1.62303e-014   XYZ
    dof rx rz
    limits (-45.0 45.0)
           (-45.0 45.0)
  end
:hierarchy
  begin
    root lhipjoint rhipjoint lowerback
    lhipjoint lfemur
    lfemur ltibia
    ltibia lfoot
    lfoot ltoes
    rhipjoint rfemur
    rfemur rtibia
    rtibia rfoot
    rfoot rtoes
    lowerback upperback
    upperback thorax
    thorax lowerneck lclavicle rclavicle
    lowerneck upperneck
    upperneck head
    lclavicle lhumerus
    lhumerus lradius
    lradius lwrist
    lwrist lhand lthumb
    lhand lfingers
    rclavicle rhumerus
    rhumerus rradius
    rradius rwrist
    rwrist rhand rthumb
    rhand rfingers
  end

#!OML:ASF G:\JayActor3\Patient Classification 1\Patient 1\Session 6\male.ASF
:FULLY-SPECIFIED
:DEGREES
271
root 48.1353 15.831 17.9341 171.54 -38.8449 -175.657
lowerback 6.86137 -0.621889 4.35557
upperback 8.23228 -1.29106 -0.418807
thorax 4.64473 -0.661946 -2.85954
lowerneck 0.28932 1.7404 2.41695
upperneck 7.09805 2.1712 -0.60485
head 2.21159 1.0668 -0.562407
rclavicle 5.97348e-014 -3.29983e-014
rhumerus -29.6864 -4.55952 -86.524
rradius 37.0912
rwrist -0.698619
rhand -18.1218 -5.51554
rfingers 7.12502
rthumb 8.15283 -35.3383
lclavicle 5.97348e-014 -3.29983e-014
lhumerus -20.9818 -4.34188 85.9684
lradius 48.059
lwrist 20.8205
lhand -17.1447 9.53782
lfingers 7.12502
lthumb 9.09571 39.3217
rfemur -37.1115 7.39888 24.2401
rtibia 69.3094
rfoot -0.436487 -17.9343
rtoes -10.6753
lfemur 8.645 13.1103 -20.9346
ltibia 19.1058
lfoot -19.8509 8.6376
ltoes -5.99726
272
root 48.1161 15.8319 17.9243 171.547 -38.8037 -175.639
lowerback 6.89325 -0.620259 4.35814
upperback 8.28529 -1.29563 -0.438576
thorax 4.68318 -0.664941 -2.88196
lowerneck 0.388756 1.75487 2.42486
upperneck 7.02173 2.19278 -0.595676
head 2.16908 1.07783 -0.561201
rclavicle -2.0276e-014 1.63003e-014
rhumerus -29.6879 -4.43096 -86.6077
rradius 37.3565
rwrist -0.663794
rhand -18.1093 -5.54408
rfingers 7.12502
rthumb 8.16485 -35.3663
lclavicle -2.0276e-014 1.63003e-014
lhumerus -20.8816 -4.32896 85.8985
lradius 48.3964
lwrist 20.7143
lhand -17.1602 9.49972
lfingers 7.12502
lthumb 9.08073 39.2842
rfemur -37.24 7.41456 24.3312
rtibia 68.4763
rfoot -0.632625 -17.6859
rtoes -10.8361
lfemur 8.74471 13.1208 -20.9423
ltibia 19.0352
lfoot -19.8228 8.66188
ltoes -6.13095
273
root 48.0968 15.8331 17.9138 171.557 -38.7688 -175.622
lowerback 6.92096 -0.621813 4.35351
upperback 8.33772 -1.30483 -0.455184
thorax 4.72306 -0.670657 -2.897
lowerneck 0.506502 1.76575 2.42808
upperneck 6.93201 2.21082 -0.595433
head 2.11902 1.08676 -0.562256
rclavicle -4.23411e-014 3.29983e-014
rhumerus -29.6841 -4.29268 -86.6871
rradius 37.6251
rwrist -0.631666
rhand -18.084 -5.56372
rfingers 7.12502
rthumb 8.18929 -35.385
lclavicle -4.23411e-014 3.29983e-014
lhumerus -20.7939 -4.30011 85.8338
lradius 48.7418
lwrist 20.6114
lhand -17.1684 9.46335
lfingers 7.12502
lthumb 9.07285 39.2482
rfemur -37.3515 7.42207 24.418
rtibia 67.5995
rfoot -0.823845 -17.4291
rtoes -10.9036
lfemur 8.84878 13.1314 -20.9489
ltibia 18.9573
lfoot -19.7865 8.67542
ltoes -6.22446
274
root 48.0776 15.8349 17.9027 171.568 -38.7442 -175.604
lowerback 6.94221 -0.62289 4.3511
upperback 8.39144 -1.3136 -0.472702
thorax 4.76798 -0.675846 -2.91441
lowerneck 0.628859 1.77618 2.43023
upperneck 6.83523 2.2281 -0.58777
head 2.06581 1.09548 -0.56087
rclavicle -3.12092e-014 2.14687e-014
rhumerus -29.6751 -4.15968 -86.7657
rradius 37.9001
rwrist -0.602871
rhand -18.0412 -5.57284
rfingers 7.12502
rthumb 8.23054 -35.3925
lclavicle -3.12092e-014 2.14687e-014
lhumerus -20.6949 -4.28753 85.7686
lradius 49.0751
lwrist 20.5306
lhand -17.1865 9.3965
lfingers 7.12502
lthumb 9.05536 39.1821
rfemur -37.4473 7.41729 24.5029
rtibia 66.6816
rfoot -0.991163 -17.1642
rtoes -10.9461
lfemur 8.95381 13.1325 -20.9523
ltibia 18.8721
lfoot -19.735 8.67404
ltoes -6.30373
275
root 48.0587 15.8369 17.8912 171.575 -38.7349 -175.588
lowerback 6.97208 -0.628945 4.33888
upperback 8.44515 -1.32921 -0.487661
thorax 4.8076 -0.685296 -2.92328
lowerneck 0.75603 1.78872 2.42597
upperneck 6.7345 2.24831 -0.577368
head 2.0105 1.10554 -0.557559
rclavicle -1.26228e-014 -1.27222e-014
rhumerus -29.6635 -4.01803 -86.8429
rradius 38.1823
rwrist -0.585602
rhand -17.9969 -5.5903
rfingers 7.12502
rthumb 8.27328 -35.4083
lclavicle -1.26228e-014 -1.27222e-014
lhumerus -20.5853 -4.2718 85.7044
lradius 49.3924
lwrist 20.4697
lhand -17.2052 9.3232
lfingers 7.12502
lthumb 9.03735 39.1096
rfemur -37.5212 7.39994 24.5826
rtibia 65.7283
rfoot -1.12344 -16.8969
rtoes -11.0034
lfemur 9.0649 13.1212 -20.9544
ltibia 18.7832
lfoot -19.6674 8.65597
ltoes -6.38282
276
root 48.0398 15.8393 17.8791 171.577 -38.7303 -175.577
lowerback 7.00827 -0.635126 4.32473
upperback 8.50101 -1.34512 -0.506431
thorax 4.84598 -0.695062 -2.93496
lowerneck 0.88778 1.80319 2.42435
upperneck 6.6302 2.27077 -0.559315
head 1.95335 1.11691 -0.552337
rclavicle 2.5842e-014 1.11319e-014
rhumerus -29.6523 -3.8746 -86.926
rradius 38.4756
rwrist -0.579975
rhand -17.9637 -5.60993
rfingers 7.12502
rthumb 8.30532 -35.4267
lclavicle 2.5842e-014 1.11319e-014
lhumerus -20.4943 -4.24369 85.6427
lradius 49.7181
lwrist 20.404
lhand -17.2215 9.23574
lfingers 7.12502
lthumb 9.02161 39.0228
rfemur -37.5696 7.37594 24.6569
rtibia 64.7426
rfoot -1.19775 -16.6223
rtoes -11.1582
lfemur 9.18392 13.1029 -20.9573
ltibia 18.697
lfoot -19.5866 8.62898
ltoes -6.45774
277
root 48.0212 15.8423 17.8665 171.583 -38.741 -175.572
lowerback 7.04483 -0.646891 4.3
upperback 8.55749 -1.36878 -0.527673
thorax 4.88419 -0.709236 -2.94308
lowerneck 1.01755 1.81789 2.42683
upperneck 6.52527 2.29359 -0.542428
head 1.8966 1.12852 -0.548212
rclavicle 3.67752e-015 -6.75868e-015
rhumerus -29.6359 -3.71831 -87.0175
rradius 38.779
rwrist -0.578889
rhand -17.9344 -5.63021
rfingers 7.12502
rthumb 8.33368 -35.4458
lclavicle 3.67752e-015 -6.75868e-015
lhumerus -20.3792 -4.21235 85.5706
lradius 50.0161
lwrist 20.3565
lhand -17.2464 9.13394
lfingers 7.12502
lthumb 8.99754 38.9221
rfemur -37.6062 7.34204 24.7209
rtibia 63.7297
rfoot -1.21228 -16.3553
rtoes -11.3577
lfemur 9.29385 13.0769 -20.9627
ltibia 18.6191
lfoot -19.491 8.58567
ltoes -6.53274
278
root 48.0035 15.8459 17.8534 171.599 -38.7759 -175.574
lowerback 7.08024 -0.665333 4.25903
upperback 8.61215 -1.40144 -0.551535
thorax 4.92036 -0.728657 -2.94453
lowerneck 1.14821 1.8337 2.43145
upperneck 6.4183 2.31764 -0.519703
head 1.83915 1.14086 -0.542663
rclavicle 4.07509e-015 -3.97569e-016
rhumerus -29.6134 -3.56607 -87.1165
rradius 39.0858
rwrist -0.583712
rhand -17.9433 -5.645
rfingers 7.12502
rthumb 8.32505 -35.4609
lclavicle 4.07509e-015 -3.97569e-016
lhumerus -20.2576 -4.1734 85.4917
lradius 50.3004
lwrist 20.3059
lhand -17.2672 9.04867
lfingers 7.12502
lthumb 8.97748 38.8377
rfemur -37.636 7.2945 24.7728
rtibia 62.6912
rfoot -1.18524 -16.1142
rtoes -11.5156
lfemur 9.38786 13.0502 -20.9694
ltibia 18.5519
lfoot -19.3771 8.52254
ltoes -6.63907
279
root 47.987 15.8503 17.8397 171.627 -38.8395 -175.582
lowerback 7.11501 -0.690046 4.19933
upperback 8.66564 -1.44273 -0.576684
thorax 4.95504 -0.753357 -2.93656
lowerneck 1.27015 1.84737 2.44172
upperneck 6.31515 2.33862 -0.495983
head 1.78465 1.15181 -0.537782
rclavicle 1.05356e-014 -1.59028e-014
rhumerus -29.586 -3.41107 -87.2242
rradius 39.4046
rwrist -0.604925
rhand -17.9515 -5.65742
rfingers 7.12502
rthumb 8.31716 -35.4737
lclavicle 1.05356e-014 -1.59028e-014
lhumerus -20.1395 -4.12699 85.4104
lradius 50.5857
lwrist 20.2479
lhand -17.2882 8.98768
lfingers 7.12502
lthumb 8.95723 38.7775
rfemur -37.6613 7.23116 24.8114
rtibia 61.6282
rfoot -1.09079 -15.8997
rtoes -11.6936
lfemur 9.46199 13.0226 -20.9768
ltibia 18.4972
lfoot -19.2481 8.4417
ltoes -6.79467
280
root 47.9716 15.8558 17.8255 171.669 -38.9336 -175.593
lowerback 7.14209 -0.723276 4.1216
upperback 8.715 -1.49551 -0.598227
thorax 4.98886 -0.784691 -2.91442
lowerneck 1.3741 1.87429 2.44043
upperneck 6.22181 2.37603 -0.454405
head 1.73638 1.17101 -0.525062
rclavicle 7.25564e-015 -1.35174e-014
rhumerus -29.5566 -3.24453 -87.3337
rradius 39.7341
rwrist -0.642273
rhand -17.9594 -5.67704
rfingers 7.12502
rthumb 8.30951 -35.4936
lclavicle 7.25564e-015 -1.35174e-014
lhumerus -20.0049 -4.07723 85.3271
lradius 50.8486
lwrist 20.1827
lhand -17.3198 8.9316
lfingers 7.12502
lthumb 8.92672 38.7228
rfemur -37.6871 7.15264 24.8378
rtibia 60.5404
rfoot -0.943944 -15.7252
rtoes -11.8091
lfemur 9.51096 12.9899 -20.9845
ltibia 18.4532
lfoot -19.1038 8.34595
ltoes -6.99193
281
root 47.9565 15.8621 17.8108 171.715 -39.0465 -175.601
lowerback 7.16506 -0.761773 4.03717
upperback 8.76123 -1.55526 -0.61453
thorax 5.02135 -0.819955 -2.88286
lowerneck 1.46586 1.91139 2.42848
upperneck 6.137 2.42628 -0.403908
head 1.69294 1.1965 -0.507586
rclavicle 2.9122e-014 -4.77083e-015
rhumerus -29.5274 -3.07692 -87.4381
rradius 40.0678
rwrist -0.686504
rhand -17.9776 -5.68906
rfingers 7.12502
rthumb 8.29192 -35.5063
lclavicle 2.9122e-014 -4.77083e-015
lhumerus -19.8947 -4.00634 85.2547
lradius 51.1247
lwrist 20.0846
lhand -17.3488 8.87194
lfingers 7.12502
lthumb 8.89875 38.6643
rfemur -37.7035 7.06617 24.8585
rtibia 59.4262
rfoot -0.778788 -15.6171
rtoes -11.6312
lfemur 9.55093 12.9537 -20.9889
ltibia 18.4118
lfoot -18.9511 8.24989
ltoes -7.25137
